<?xml version="1.0" encoding="iso-8859-1"?>
<!-- Generator: Adobe Illustrator 19.0.0, SVG Export Plug-In . SVG Version: 6.00 Build 0)  -->
<svg version="1.1" id="Layer_1" xmlns="http://www.w3.org/2000/svg" xmlns:xlink="http://www.w3.org/1999/xlink" x="0px" y="0px"
	 viewBox="0 0 512 512" style="enable-background:new 0 0 512 512;" xml:space="preserve">
<g>
	<g>
		<path stroke="black" stroke-width="18" d="M413.484,139.532L286.648,12.697C278.463,4.509,267.58,0,255.999,0c-11.579,0-22.463,4.509-30.647,12.695L98.516,139.531
			c-8.186,8.187-12.694,19.069-12.694,30.647s4.508,22.461,12.693,30.646c0,0,0,0,0.001,0.001
			c8.177,8.178,19.06,12.682,30.646,12.682s22.469-4.504,30.646-12.682l52.852-52.852v320.688c0,23.897,19.443,43.339,43.341,43.339
			s43.341-19.442,43.341-43.339V147.973l52.851,52.851c16.898,16.897,44.394,16.895,61.293,0
			c8.186-8.187,12.694-19.07,12.694-30.647S421.67,147.718,413.484,139.532z M399.062,186.401c-8.948,8.946-23.502,8.944-32.446,0
			l-70.263-70.263c-2.917-2.916-7.305-3.79-11.115-2.21c-3.81,1.578-6.296,5.296-6.296,9.422v345.31
			c0,12.649-10.291,22.941-22.942,22.941s-22.942-10.292-22.942-22.941v-345.31c0-4.126-2.485-7.844-6.296-9.422
			c-1.263-0.523-2.587-0.777-3.901-0.777c-2.654,0-5.263,1.036-7.213,2.986L145.383,186.4c-4.324,4.326-10.085,6.707-16.222,6.707
			c-6.137,0-11.898-2.382-16.222-6.706c-0.001-0.001-0.001-0.001-0.001-0.001c-4.333-4.333-6.719-10.093-6.719-16.222
			c0-6.128,2.387-11.889,6.72-16.222L239.778,27.119c4.332-4.334,10.093-6.72,16.222-6.72c6.13,0,11.889,2.387,16.222,6.721
			l126.839,126.838c4.334,4.334,6.72,10.093,6.72,16.221S403.394,182.068,399.062,186.401z"/>
	</g>
</g>
</svg>
